<svg xmlns="http://www.w3.org/2000/svg" version="1.1" xmlns:xlink="http://www.w3.org/1999/xlink" xmlns:svgjs="http://svgjs.dev/svgjs" width="1440" height="560" preserveAspectRatio="none" viewBox="0 0 1440 560"><g mask="url(&quot;#SvgjsMask1400&quot;)" fill="none"><rect width="1440" height="560" x="0" y="0" fill="url(&quot;#SvgjsLinearGradient1401&quot;)"></rect><path d="M1440 0L1012.4300000000001 0L1440 217.06z" fill="rgba(255, 255, 255, .1)"></path><path d="M1012.4300000000001 0L1440 217.06L1440 273.3L730.6800000000001 0z" fill="rgba(255, 255, 255, .075)"></path><path d="M730.6800000000001 0L1440 273.3L1440 286.54L668.2900000000001 0z" fill="rgba(255, 255, 255, .05)"></path><path d="M668.2900000000001 0L1440 286.54L1440 416.52L518.1700000000001 0z" fill="rgba(255, 255, 255, .025)"></path><path d="M0 560L228.64 560L0 516.15z" fill="rgba(0, 0, 0, .1)"></path><path d="M0 516.15L228.64 560L275.78999999999996 560L0 361.80999999999995z" fill="rgba(0, 0, 0, .075)"></path><path d="M0 361.81L275.78999999999996 560L798.13 560L0 204.98z" fill="rgba(0, 0, 0, .05)"></path><path d="M0 204.98000000000002L798.13 560L923.22 560L0 89.59000000000002z" fill="rgba(0, 0, 0, .025)"></path></g><defs><mask id="SvgjsMask1400"><rect width="1440" height="560" fill="#ffffff"></rect></mask><linearGradient x1="100%" y1="50%" x2="0%" y2="50%" gradientUnits="userSpaceOnUse" id="SvgjsLinearGradient1401"><stop stop-color="#0e2a47" offset="0"></stop><stop stop-color="rgba(48, 92, 25, 0.82)" offset="1"></stop></linearGradient></defs></svg>